<svg width="46" height="235" viewBox="0 0 46 235" fill="none" xmlns="http://www.w3.org/2000/svg">
<path d="M25.1213 0.878677C23.9498 -0.292896 22.0503 -0.292896 20.8787 0.878676L1.78681 19.9706C0.615232 21.1421 0.615232 23.0416 1.78681 24.2132C2.95838 25.3848 4.85787 25.3848 6.02945 24.2132L23 7.24264L39.9706 24.2132C41.1421 25.3848 43.0416 25.3848 44.2132 24.2132C45.3848 23.0416 45.3848 21.1421 44.2132 19.9706L25.1213 0.878677ZM23 235L26 235L26 3L23 3L20 3L20 235L23 235Z" fill="url(#paint0_linear_2282_30)"/>
<defs>
<linearGradient id="paint0_linear_2282_30" x1="23.5" y1="3" x2="23.5" y2="235" gradientUnits="userSpaceOnUse">
<stop stop-color="white"/>
<stop offset="1" stop-color="white" stop-opacity="0"/>
</linearGradient>
</defs>
</svg>
