<svg width="213" height="213" viewBox="0 0 213 213" fill="none" xmlns="http://www.w3.org/2000/svg">
<circle cx="107" cy="108" r="95" fill="white"/>
<path d="M75.97 200C79.0304 198.683 81.1739 195.639 81.1739 192.097V168.852C81.1739 168.004 81.2428 167.122 81.3504 166.226C81.2901 166.244 81.2342 166.256 81.1739 166.269C81.1739 166.269 68.2609 166.269 65.6783 166.269C59.2217 166.269 53.6261 163.687 51.0435 158.521C48.0304 152.925 46.7391 143.455 38.9913 138.29C37.7 137.429 38.5609 136.137 41.1435 136.137C43.7261 136.568 49.3217 140.011 52.7652 144.746C56.6391 149.481 60.513 153.356 67.4 153.356C78.1049 153.356 83.8426 152.818 87.2947 150.967C91.315 144.988 96.8805 140.442 102.696 140.442V140.334C78.2986 139.551 62.7126 131.441 55.4554 118.919C39.68 119.1 25.9448 120.662 18.1066 121.962C17.857 120.555 17.6417 119.139 17.4567 117.714C25.1916 116.44 38.3026 114.929 53.3764 114.64C52.8943 113.452 52.4768 112.234 52.1239 110.986C37.0113 110.219 23.9691 110.818 16.8842 111.403C16.7981 109.974 16.6819 108.549 16.6647 107.103C23.7625 106.522 36.4517 105.941 51.1769 106.625C50.8369 104.473 50.6173 102.273 50.6173 99.9832C50.6173 92.6654 53.2 84.9171 57.9347 78.4603C55.7826 71.1425 52.7695 55.646 58.7956 50.0501C70.4173 50.0501 78.5956 55.646 82.4695 59.0897C89.7826 56.0722 97.9609 54.3503 107 54.3503C116.039 54.3503 124.217 56.0722 131.104 59.0854C134.978 55.6417 143.157 50.0458 154.778 50.0458C161.235 56.0722 157.791 71.5687 155.639 78.456C160.374 84.9128 162.957 92.2306 162.526 99.9789C162.526 102.062 162.332 104.073 162.053 106.044C177.114 105.304 190.147 105.898 197.365 106.483C197.357 107.934 197.223 109.35 197.146 110.783C189.953 110.189 176.593 109.578 161.166 110.4C160.783 111.847 160.318 113.254 159.767 114.619C175.03 114.817 188.455 116.293 196.561 117.585C196.375 119.014 196.16 120.43 195.911 121.833C187.681 120.516 173.653 118.975 157.692 118.897C150.526 131.286 135.224 139.366 111.304 140.308V140.442C122.496 140.442 132.826 157.23 132.826 168.852V192.097C132.826 195.639 134.97 198.683 138.03 200C177.462 186.949 206 149.757 206 106.005C206 51.4146 161.592 7 107 7C52.408 7 8 51.4146 8 106.005C8 149.757 36.5378 186.949 75.97 200Z" fill="#425173"/>
</svg>
