<svg width="46" height="238" viewBox="0 0 46 238" fill="none" xmlns="http://www.w3.org/2000/svg">
<g clip-path="url(#clip0_2276_24)">
<path d="M20.0005 235V149H26.0005V235C26.0004 236.657 24.6572 238 23.0005 238C21.3437 238 20.0006 236.657 20.0005 235ZM20.8794 0.87915C22.0509 -0.292423 23.95 -0.292422 25.1216 0.87915L44.2134 19.9709C45.3849 21.1425 45.3849 23.0416 44.2134 24.2131C43.0418 25.3847 41.1427 25.3846 39.9712 24.2131L26.0005 10.2424V89.0002H20.0005V10.2424L6.02979 24.2131C4.85828 25.3847 2.95918 25.3845 1.7876 24.2131C0.616027 23.0415 0.616027 21.1424 1.7876 19.9709L20.8794 0.87915Z" fill="url(#paint0_linear_2276_24)"/>
</g>
<defs>
<linearGradient id="paint0_linear_2276_24" x1="23.0003" y1="0.000244141" x2="23.0003" y2="238" gradientUnits="userSpaceOnUse">
<stop stop-color="white" stop-opacity="0"/>
<stop offset="0.5" stop-color="white"/>
<stop offset="1" stop-color="white" stop-opacity="0"/>
</linearGradient>
<clipPath id="clip0_2276_24">
<rect width="46" height="238" fill="white"/>
</clipPath>
</defs>
</svg>
