<svg width="46" height="238" viewBox="0 0 46 238" fill="none" xmlns="http://www.w3.org/2000/svg">
<path d="M25.1213 0.878677C23.9497 -0.292895 22.0502 -0.292895 20.8787 0.878678L1.78679 19.9706C0.615219 21.1421 0.615219 23.0416 1.78679 24.2132C2.95836 25.3848 4.85786 25.3848 6.02943 24.2132L23 7.24264L39.9706 24.2132C41.1421 25.3848 43.0416 25.3848 44.2132 24.2132C45.3848 23.0416 45.3848 21.1421 44.2132 19.9706L25.1213 0.878677ZM23 89L26 89L26 3L23 3L20 3L20 89L23 89Z" fill="url(#paint0_linear_2275_22)"/>
<path d="M20 235C20 236.657 21.3431 238 23 238C24.6569 238 26 236.657 26 235L20 235ZM23 235L26 235L26 149L23 149L20 149L20 235L23 235Z" fill="url(#paint1_linear_2275_22)"/>
<defs>
<linearGradient id="paint0_linear_2275_22" x1="23.5" y1="3" x2="23.5" y2="89" gradientUnits="userSpaceOnUse">
<stop stop-color="white"/>
<stop offset="1" stop-color="white" stop-opacity="0"/>
</linearGradient>
<linearGradient id="paint1_linear_2275_22" x1="23.5" y1="149" x2="23.5" y2="235" gradientUnits="userSpaceOnUse">
<stop stop-color="white"/>
<stop offset="1" stop-color="white" stop-opacity="0"/>
</linearGradient>
</defs>
</svg>
