<svg width="57" height="57" viewBox="0 0 57 57" fill="none" xmlns="http://www.w3.org/2000/svg">
<path d="M28.5017 10.0569L31.11 25.8917L46.9448 28.5L31.11 31.1082L28.5017 46.9431L25.8935 31.1082L10.0586 28.5L25.8935 25.8917L28.5017 10.0569Z" fill="white"/>
<path d="M28.5 0.375C44.033 0.375 56.625 12.967 56.625 28.5C56.625 44.033 44.033 56.625 28.5 56.625C12.967 56.625 0.375 44.033 0.375 28.5C0.375001 12.967 12.967 0.375001 28.5 0.375ZM28.5 1.2959C13.4755 1.2959 1.2959 13.4755 1.2959 28.5C1.2959 43.5245 13.4755 55.7041 28.5 55.7041C43.5245 55.7041 55.7041 43.5245 55.7041 28.5C55.7041 13.4755 43.5245 1.2959 28.5 1.2959Z" fill="white" stroke="white" stroke-width="0.25"/>
</svg>
