<svg width="98" height="98" viewBox="0 0 98 98" fill="none" xmlns="http://www.w3.org/2000/svg">
<rect x="18" y="22" width="61" height="55" fill="white"/>
<path d="M48.9999 3.91998C73.8978 3.91998 94.0799 24.1021 94.0799 49C94.0799 73.8979 73.8978 94.08 48.9999 94.08C24.102 94.08 3.91992 73.8979 3.91992 49C3.91992 24.1021 24.102 3.91998 48.9999 3.91998ZM64.5506 67.375C65.3796 64.8309 69.2644 39.4763 69.7446 34.4803C69.8896 32.9672 69.4114 31.9617 68.4745 31.5129C67.3416 30.968 65.6638 31.2404 63.7176 31.9421C61.048 32.9045 26.9205 47.3947 24.9488 48.2336C23.0789 49.0274 21.311 49.8937 21.311 51.1481C21.311 52.0301 21.8343 52.526 23.2769 53.0415C24.7782 53.5766 28.5591 54.7232 30.7915 55.3386C32.9416 55.9325 35.3897 55.417 36.7617 54.5644C38.216 53.6609 54.9995 42.4301 56.2049 41.4461C57.4083 40.4622 58.3687 41.7225 57.3848 42.7084C56.4009 43.6923 44.88 54.8741 43.361 56.4225C41.5166 58.3021 42.8259 60.2504 44.0627 61.0305C45.4758 61.9203 55.6384 68.7372 57.1692 69.8309C58.7 70.9245 60.2523 71.4204 61.6733 71.4204C63.0943 71.4204 63.843 69.5486 64.5506 67.375Z" fill="#425173"/>
</svg>
